<svg width="24" height="24" viewBox="0 0 24 24" fill="none" xmlns="http://www.w3.org/2000/svg">
<g clip-path="url(#clip0_79_1374)">
<path d="M13.7716 18.0374L11.9999 16.9811L10.3027 17.9929L11.1057 19.7659L10.3997 23.5313H13.6943L12.9886 19.7659L13.7716 18.0374Z" fill="#E95440"/>
<path d="M17.0361 15.0938C16.3471 15.0938 14.7973 15.0938 14.1094 15.0938V13.589C15.5156 12.8374 16.4531 11.3596 16.4531 9.66299C16.4531 9.12731 16.4531 5.05022 16.4531 4.42828L17.736 3.15361C17.894 2.9956 17.9226 2.74805 17.7986 2.56215L16.8593 1.15018C16.7913 1.04809 16.6869 0.976791 16.5669 0.951525L12.0961 0.0100898C12.0324 -0.00336327 11.9669 -0.00336327 11.9031 0.0100898L7.43197 0.951432C7.31197 0.976697 7.20665 1.04804 7.13863 1.15009L6.19734 2.5621C6.07335 2.74801 6.10607 2.99555 6.26404 3.15357L7.54686 4.42824V9.66295C7.54686 11.3595 8.48436 12.8374 9.89061 13.5889V15.0937C9.19995 15.0937 7.65172 15.0937 6.96393 15.0937C4.42162 15.0938 2.34375 17.1766 2.34375 19.7188V23.5312C2.34375 23.7901 2.56322 24 2.82206 24H21.1779C21.4367 24 21.6562 23.7901 21.6562 23.5312V19.7188C21.6562 17.1766 19.5783 15.0938 17.0361 15.0938ZM15.5214 16.0313L14.6426 18.0036L12.8019 16.9026L13.8199 16.0313H15.5214ZM11.5274 3.29279C11.5274 3.03216 11.7394 2.82019 12 2.82019C12.2606 2.82019 12.4726 3.03216 12.4726 3.29279C12.4726 3.55336 12.2606 3.76533 12 3.76533C11.7394 3.76533 11.5274 3.55332 11.5274 3.29279ZM15.5156 4.68755V5.62505H8.48436V4.68755H15.5156ZM15.4542 6.56255C15.2629 7.12504 14.7396 7.54692 14.1256 7.54692H9.87439C9.26042 7.54692 8.73707 7.12504 8.54577 6.56255H15.4542ZM7.81255 1.8294L12 0.947775L16.1874 1.8294L16.8094 2.75471L15.8065 3.75H13.3284C13.3811 3.60938 13.4101 3.4508 13.4101 3.2851C13.4101 2.50759 12.7775 1.87881 12 1.87881C11.2225 1.87881 10.5899 2.50566 10.5899 3.28318C10.5899 3.44888 10.6189 3.60938 10.6716 3.75H8.1935L7.19057 2.75471L7.81255 1.8294ZM8.48436 9.66295V7.99809C8.85936 8.29303 9.34714 8.48437 9.87434 8.48437H14.1256C14.6528 8.48437 15.1406 8.29303 15.5156 7.99809V9.66295C15.5156 11.5866 13.972 13.1719 12.0162 13.1719H11.9837C10.0326 13.1719 8.48436 11.5881 8.48436 9.66295ZM13.1719 13.9619V15.3607L12 16.3653L10.8281 15.3607V13.9619C11.5577 14.1571 12.4255 14.1616 13.1719 13.9619ZM10.18 16.0313L11.198 16.9062L9.35736 18L8.4786 16.0312H10.18V16.0313ZM20.7187 23.0625H3.28125V19.7189C3.28125 17.6936 4.93856 16.0313 6.96393 16.0313H7.45166L8.71672 18.8675C8.83438 19.1306 9.14891 19.2258 9.38469 19.0852L12 17.5264L14.6153 19.0858C14.8527 19.2274 15.1623 19.138 15.2832 18.8675L16.5483 16.0313H17.036C19.0614 16.0313 20.7187 17.6936 20.7187 19.7189V23.0625Z" fill="#024273"/>
<path d="M10.7665 11.3509C11.5204 11.9016 12.5735 11.9018 13.3277 11.3509C13.5367 11.1982 13.5824 10.9049 13.4297 10.6959C13.2771 10.4868 12.9837 10.4412 12.7747 10.5938C12.3531 10.9018 11.7411 10.9018 11.3196 10.5939C11.1105 10.441 10.8172 10.4869 10.6645 10.6958C10.5118 10.9049 10.5575 11.1981 10.7665 11.3509Z" fill="#024273"/>
<path d="M18.3539 19.0781H16.9419C16.6831 19.0781 16.4731 19.288 16.4731 19.5469C16.4731 19.8057 16.6831 20.0156 16.9419 20.0156H18.3539C18.6127 20.0156 18.8226 19.8057 18.8226 19.5469C18.8226 19.288 18.6127 19.0781 18.3539 19.0781Z" fill="#024273"/>
</g>
<defs>
<clipPath id="clip0_79_1374">
<rect width="24" height="24" fill="white"/>
</clipPath>
</defs>
</svg>
