<svg width="24" height="24" viewBox="0 0 24 24" fill="none" xmlns="http://www.w3.org/2000/svg">
<g clip-path="url(#clip0_79_1335)">
<path d="M17.5697 7.63064C17.8285 7.63064 18.0384 7.42078 18.0384 7.16189V2.56617C18.0384 1.15116 16.8873 0 15.4723 0H6.20938C4.79441 0 3.64321 1.15116 3.64321 2.56617V12.2172H3.1836C2.4095 12.2172 1.77979 12.847 1.77979 13.621V17.5566C1.77979 18.3306 2.40955 18.9604 3.1836 18.9604H3.48589L3.64321 19.2729V21.4339C3.64321 22.8489 4.79441 24 6.20938 24H15.4723C16.8872 24 18.0384 22.8489 18.0384 21.4339V11.9013C18.0384 11.6424 17.8285 11.4325 17.5697 11.4325C17.3108 11.4325 17.1009 11.6424 17.1009 11.9013V21.4339C17.1009 22.3319 16.3703 23.0625 15.4723 23.0625H6.20938C5.31135 23.0625 4.58071 22.332 4.58071 21.4339V19.3778L5.07458 18.9604H8.72952C9.50361 18.9604 10.1333 18.3306 10.1333 17.5566V13.621C10.1333 12.8469 9.50361 12.2172 8.72952 12.2172H4.58075V2.56617C4.58075 1.66809 5.31135 0.9375 6.20938 0.9375H15.4723C16.3703 0.9375 17.1009 1.66809 17.1009 2.56617V7.16189C17.1009 7.42078 17.3108 7.63064 17.5697 7.63064ZM9.19588 13.621V17.5566C9.19588 17.8137 8.98667 18.0229 8.72957 18.0229H4.90307C4.7923 18.0229 4.6851 18.0621 4.60044 18.1336L4.26294 18.4189L4.19347 18.2809C4.11383 18.1227 3.95188 18.0229 3.77478 18.0229H3.1836C2.92649 18.0229 2.71729 17.8137 2.71729 17.5566V13.621C2.71729 13.3639 2.92649 13.1547 3.1836 13.1547H8.72952C8.98668 13.1547 9.19588 13.3639 9.19588 13.621Z" fill="#024273"/>
<path d="M10.0869 21.0492C9.82802 21.0492 9.61816 21.2591 9.61816 21.5179C9.61816 21.7768 9.82802 21.9867 10.0869 21.9867H11.5949C11.8538 21.9867 12.0636 21.7768 12.0636 21.5179C12.0636 21.2591 11.8538 21.0492 11.5949 21.0492H10.0869Z" fill="#024273"/>
<path d="M14.4691 2.56616C14.4691 2.30727 14.2592 2.09741 14.0003 2.09741H7.68115C7.42226 2.09741 7.2124 2.30727 7.2124 2.56616C7.2124 2.82505 7.42226 3.03491 7.68115 3.03491H14.0003C14.2592 3.03491 14.4691 2.82505 14.4691 2.56616Z" fill="#024273"/>
<path d="M12.7138 5.02838H20.8486C21.6061 5.02838 22.2201 5.64244 22.2201 6.39994V12.1725C22.2201 12.93 21.6061 13.5441 20.8486 13.5441H19.9815L19.4876 14.5254L18.3266 13.5441H12.7138C11.9563 13.5441 11.3423 12.93 11.3423 12.1725V6.39994C11.3423 5.64244 11.9564 5.02838 12.7138 5.02838Z" fill="#E95440"/>
<path d="M19.1362 8.67188H14.4268C14.1679 8.67188 13.958 8.46202 13.958 8.20312C13.958 7.94423 14.1679 7.73438 14.4268 7.73438H19.1362C19.395 7.73438 19.6049 7.94423 19.6049 8.20312C19.6049 8.46202 19.395 8.67188 19.1362 8.67188Z" fill="#024273"/>
<path d="M19.1362 10.874H14.4268C14.1679 10.874 13.958 10.6642 13.958 10.4053C13.958 10.1464 14.1679 9.93652 14.4268 9.93652H19.1362C19.395 9.93652 19.6049 10.1464 19.6049 10.4053C19.6049 10.6642 19.395 10.874 19.1362 10.874Z" fill="#024273"/>
</g>
<defs>
<clipPath id="clip0_79_1335">
<rect width="24" height="24" fill="white"/>
</clipPath>
</defs>
</svg>
