<svg width="24" height="24" viewBox="0 0 24 24" fill="none" xmlns="http://www.w3.org/2000/svg">
<g clip-path="url(#clip0_79_1375)">
<path d="M17.3906 8.01562V16.4531H6.60938V8.01562H3.28125V18.3281H20.7188V8.01562H17.3906Z" fill="#E95440"/>
<path d="M23.5312 19.7344H23.0625V7.54688C23.0625 6.513 22.2214 5.67188 21.1875 5.67188H17.8594V0.984375C17.8594 0.725484 17.6495 0.515625 17.3906 0.515625H6.60938C6.35048 0.515625 6.14062 0.725484 6.14062 0.984375V5.67188H2.8125C1.77863 5.67188 0.9375 6.513 0.9375 7.54688V19.7344H0.46875C0.209859 19.7344 0 19.9443 0 20.2031V21.6094C0 22.6432 0.841125 23.4844 1.875 23.4844H22.125C23.1589 23.4844 24 22.6432 24 21.6094V20.2031C24 19.9443 23.7901 19.7344 23.5312 19.7344ZM7.07812 1.45312H16.9219V15.9844H7.07812V1.45312ZM1.875 7.54688C1.875 7.02994 2.29556 6.60938 2.8125 6.60938H6.14062V15.9844H5.67188C5.41303 15.9844 5.20312 16.1943 5.20312 16.4531C5.20312 16.712 5.41303 16.9219 5.67188 16.9219H18.3281C18.587 16.9219 18.7969 16.712 18.7969 16.4531C18.7969 16.1943 18.587 15.9844 18.3281 15.9844H17.8594V6.60938H21.1875C21.7044 6.60938 22.125 7.02994 22.125 7.54688V19.7344H1.875V7.54688ZM23.0625 21.6094C23.0625 22.1263 22.6419 22.5469 22.125 22.5469H1.875C1.35806 22.5469 0.9375 22.1263 0.9375 21.6094V20.6719H23.0625V21.6094Z" fill="#024273"/>
<path d="M12.7326 6.07575C12.2666 5.91103 11.7508 5.71177 11.4587 5.48273C11.2234 5.29823 11.3192 4.68023 11.7571 4.54837C12.3429 4.37184 12.7218 4.69247 12.7377 4.70616L12.7326 4.70152L12.733 4.70105C12.8189 4.78017 12.933 4.82578 13.0505 4.82578C13.3087 4.82578 13.5192 4.61536 13.5192 4.35703C13.5192 4.23323 13.4691 4.11281 13.3818 4.02562C13.3773 4.02108 13.3724 4.01714 13.3677 4.01283L13.3681 4.01231C13.3484 3.99413 13.0399 3.71662 12.5315 3.60422V3.32812C12.5315 3.06928 12.3216 2.85938 12.0628 2.85938C11.8039 2.85938 11.594 3.06928 11.594 3.32812V3.62123C11.5586 3.63005 11.5229 3.6398 11.4867 3.65067C10.9417 3.81487 10.5347 4.27997 10.4246 4.86445C10.3235 5.40122 10.498 5.92078 10.8802 6.22045C11.2015 6.47255 11.6477 6.68672 12.4201 6.95972C12.9682 7.15345 12.9562 7.59825 12.9255 7.7805C12.8641 8.14547 12.5572 8.53983 12.0282 8.54334C11.5234 8.54648 11.3656 8.52159 10.9759 8.26669C10.7593 8.12484 10.4688 8.18569 10.327 8.4023C10.1853 8.61895 10.246 8.90944 10.4627 9.05119C10.8904 9.33108 11.1996 9.43453 11.594 9.46739V9.7102C11.594 9.96905 11.8039 10.179 12.0628 10.179C12.3216 10.179 12.5315 9.96905 12.5315 9.7102V9.41198C13.2706 9.20583 13.744 8.56669 13.85 7.93598C13.9891 7.10873 13.54 6.36122 12.7326 6.07575Z" fill="#024273"/>
<path d="M8.95312 12.2344H15.0469C15.3057 12.2344 15.5156 12.0245 15.5156 11.7656C15.5156 11.5067 15.3057 11.2969 15.0469 11.2969H8.95312C8.69423 11.2969 8.48438 11.5067 8.48438 11.7656C8.48438 12.0245 8.69423 12.2344 8.95312 12.2344Z" fill="#024273"/>
<path d="M8.95312 14.5781H15.0469C15.3057 14.5781 15.5156 14.3682 15.5156 14.1094C15.5156 13.8505 15.3057 13.6406 15.0469 13.6406H8.95312C8.69423 13.6406 8.48438 13.8505 8.48438 14.1094C8.48438 14.3682 8.69423 14.5781 8.95312 14.5781Z" fill="#024273"/>
</g>
<defs>
<clipPath id="clip0_79_1375">
<rect width="24" height="24" fill="white"/>
</clipPath>
</defs>
</svg>
